<svg width="119" height="32" viewBox="0 0 119 32" fill="none" xmlns="http://www.w3.org/2000/svg">
<path d="M38.7862 8.74884H43.7726V12.32C44.2168 11.1987 44.9269 10.1996 45.8431 9.40714C46.7263 8.68168 47.9082 8.34161 49.3791 8.41768V13.6618H49.1223C47.4693 13.6618 46.1453 14.1854 45.1989 15.1831C44.2513 16.2079 43.7715 17.7864 43.7715 19.9306V26.4733H38.7852L38.7862 8.74884Z" fill="#D7DFE5"/>
<path d="M76.5613 26.7721C74.6504 26.7721 73.193 26.1949 72.1401 25.0269C71.096 23.8635 70.5762 22.2437 70.5762 20.1899V8.71729H75.5749V18.6015C75.5749 19.8007 75.8356 20.7001 76.3569 21.2998C76.8945 21.9038 77.6454 22.217 78.592 22.217C79.0173 22.2339 79.4414 22.1608 79.836 22.0027C80.2305 21.8445 80.5865 21.6049 80.8801 21.2998C81.4312 20.7001 81.7148 19.8007 81.7148 18.6015V8.71729H86.7011V26.4498H81.7148V23.9219C81.4245 24.2987 81.1145 24.6602 80.786 25.0048C80.4362 25.3433 80.0554 25.6488 79.6485 25.9176C79.2204 26.1918 78.7535 26.4013 78.2631 26.5394C77.7126 26.7023 77.1402 26.7809 76.5658 26.7725" fill="#D7DFE5"/>
<path d="M36.499 13.993C36.0396 12.9044 35.3681 11.9162 34.5229 11.0846C33.6599 10.2468 32.641 9.58271 31.5225 9.12915C30.3227 8.65024 29.0393 8.40999 27.7457 8.42212C26.4389 8.40617 25.1423 8.65118 23.9332 9.1425C23.3798 9.37472 22.8489 9.65626 22.347 9.98364V8.74438H17.4062V31.762H22.347V25.3584C22.8386 25.6736 23.3593 25.9419 23.9022 26.1595C25.0971 26.6404 26.3759 26.8837 27.6657 26.8755C28.975 26.8883 30.2733 26.6386 31.4825 26.1415C32.6109 25.683 33.6375 25.0096 34.5038 24.1594C35.3567 23.3216 36.0345 22.3257 36.4988 21.2285C36.9849 20.0967 37.23 18.8777 37.2187 17.6478V17.5726C37.2282 16.3418 36.9832 15.1221 36.4988 13.9885M32.3002 17.7114C32.3033 18.3481 32.1967 18.9807 31.9848 19.5818C31.7964 20.1503 31.487 20.6721 31.0774 21.112C30.6823 21.5553 30.198 21.9119 29.6555 22.1591C29.052 22.4197 28.3987 22.5479 27.7404 22.535C27.0884 22.5475 26.4422 22.4113 25.852 22.1368C25.2974 21.8749 24.8006 21.5068 24.3903 21.054C23.9771 20.6053 23.6533 20.0833 23.4359 19.5155C23.2204 18.9153 23.1135 18.2821 23.1202 17.6451V17.569C23.1124 16.936 23.2146 16.3064 23.4224 15.7077C23.6252 15.1428 23.931 14.6196 24.3244 14.164C24.7238 13.7253 25.2071 13.3694 25.7463 13.1169C26.3513 12.8559 27.0061 12.7276 27.6659 12.741C28.317 12.7262 28.9623 12.8642 29.5492 13.1436C30.1058 13.4025 30.6055 13.7674 31.0198 14.2173C31.4403 14.6636 31.7665 15.1884 31.9794 15.7611C32.1982 16.3653 32.3068 17.0031 32.3004 17.6449V17.712L32.3002 17.7114Z" fill="#D7DFE5"/>
<path d="M99.462 13.0626V8.74897H95.3253V4.13135H90.3488V6.57343H90.34V8.75363H88.2383V13.067H90.34V21.4573C90.3119 22.3258 90.4397 23.1924 90.7175 24.0168C90.9315 24.6373 91.289 25.1997 91.7617 25.659C92.2149 26.0781 92.766 26.3794 93.3657 26.536C94.0461 26.7099 94.747 26.7927 95.4496 26.7822C96.1934 26.7934 96.9351 26.703 97.6539 26.5137C98.2625 26.3381 98.8462 26.0871 99.3912 25.7664V21.7253C98.6418 22.1404 97.7972 22.3577 96.9385 22.3563C95.8543 22.3563 95.321 21.77 95.321 20.638V13.0626H99.462Z" fill="#D7DFE5"/>
<path d="M64.8814 0.761719C64.8814 0.761719 59.7761 0.86469 59.5312 6.13574C59.5317 6.13574 64.5262 6.14909 64.8814 0.761719Z" fill="#D7DFE5"/>
<path d="M54.1582 0.761719C54.1582 0.761719 59.259 0.86469 59.5084 6.13574C59.5079 6.13574 54.5092 6.14909 54.1582 0.761719Z" fill="#D7DFE5"/>
<path d="M59.5988 7.84082C54.4002 7.84082 50.2012 12.0828 50.2012 17.3091C50.2012 22.5355 54.4047 26.7772 59.5988 26.7772C64.793 26.7772 68.9965 22.5442 68.9965 17.3091C68.9965 12.0741 64.7844 7.84082 59.5988 7.84082ZM59.5988 22.2177C58.6131 22.2361 57.6442 21.9634 56.8157 21.4345C55.9871 20.9056 55.3364 20.1444 54.9465 19.2479C54.5566 18.3515 54.4452 17.3603 54.6265 16.4009C54.8078 15.4415 55.2735 14.5573 55.9643 13.861C56.6552 13.1647 57.5398 12.6878 58.5055 12.4912C59.4711 12.2946 60.474 12.3871 61.3864 12.757C62.2987 13.1269 63.0791 13.7574 63.628 14.5682C64.177 15.3789 64.4697 16.3331 64.4687 17.3091C64.4797 18.5992 63.9729 19.8408 63.0598 20.7612C62.1467 21.6816 60.9018 22.2054 59.5988 22.2177Z" fill="#D7DFE5"/>
<path d="M8.52664 26.6291C6.95322 26.6402 5.38975 26.3814 3.90561 25.864C2.46312 25.3708 1.1351 24.5964 0 23.5865L2.80819 20.2082C4.6699 21.6803 6.63825 22.4155 8.71326 22.414C9.40193 22.414 9.93523 22.3155 10.2772 22.0875C10.4488 22.0012 10.5918 21.8682 10.6895 21.704C10.7873 21.5399 10.8355 21.3516 10.8287 21.1612V21.1076C10.826 20.9255 10.7771 20.747 10.6866 20.5885C10.5744 20.3982 10.4073 20.2455 10.2068 20.1499C9.90685 19.9893 9.5914 19.8588 9.26518 19.7605C8.8652 19.6261 8.34495 19.4831 7.72776 19.3265C6.75467 19.0894 5.85713 18.8521 5.02615 18.5748C4.25565 18.3275 3.52305 17.9768 2.84885 17.5324C2.24678 17.1186 1.74702 16.5753 1.38697 15.9433C1.01893 15.2139 0.84007 14.4052 0.86651 13.5902V13.5266C0.852164 12.7193 1.0127 11.9183 1.33732 11.1776C1.65772 10.4602 2.13589 9.82266 2.73692 9.31158C3.39396 8.76944 4.14963 8.35664 4.96323 8.09542C5.91321 7.79928 6.90432 7.65285 7.90025 7.66149C9.31499 7.63444 10.7242 7.8447 12.068 8.28335C13.2812 8.67998 14.4097 9.29594 15.396 10.1L12.8635 13.6843C12.0905 13.1024 11.2298 12.6448 10.313 12.3283C9.49962 12.0405 8.64383 11.8878 7.78019 11.8763C7.17156 11.8763 6.70481 11.9838 6.41612 12.2031C6.27284 12.296 6.15519 12.4228 6.07374 12.572C5.9923 12.7212 5.94963 12.8882 5.94958 13.0578V13.1025C5.94598 13.2973 5.9967 13.4893 6.09618 13.6574C6.22523 13.8393 6.3977 13.9868 6.59823 14.0868C6.90042 14.2506 7.21911 14.3825 7.54906 14.4805C7.95782 14.6102 8.48213 14.7534 9.13528 14.8966C10.0855 15.0934 11.0197 15.3596 11.9302 15.6931C12.6905 15.9625 13.4097 16.3343 14.0675 16.7982C14.6351 17.2197 15.0973 17.7647 15.4183 18.3911C15.7411 19.0848 15.8991 19.8425 15.8803 20.6061V20.6508C15.8962 21.5181 15.7187 22.3783 15.3605 23.17C15.0063 23.8986 14.4933 24.5404 13.8586 25.0493C13.1669 25.5796 12.3821 25.9786 11.5437 26.2261C10.5648 26.5053 9.5498 26.641 8.53114 26.6286" fill="#D7DFE5"/>
<path d="M109.607 7.84082C104.422 7.84082 100.205 12.0828 100.205 17.3091C100.205 22.5355 104.417 26.7772 109.607 26.7772C114.797 26.7772 119 22.5442 119 17.3091C119 12.0741 114.797 7.84082 109.607 7.84082ZM109.607 22.2177C108.622 22.2342 107.654 21.9599 106.827 21.4299C105.999 20.8998 105.35 20.1379 104.962 19.2413C104.573 18.3447 104.463 17.3539 104.646 16.3952C104.828 15.4364 105.294 14.5531 105.986 13.8578C106.677 13.1625 107.562 12.6866 108.527 12.4907C109.492 12.2949 110.495 12.388 111.406 12.7582C112.318 13.1283 113.098 13.7588 113.646 14.5693C114.195 15.3798 114.487 16.3335 114.486 17.3091C114.492 17.9487 114.37 18.5829 114.127 19.1758C113.885 19.7686 113.527 20.3083 113.074 20.7641C112.621 21.22 112.081 21.5829 111.486 21.8323C110.892 22.0817 110.253 22.2127 109.607 22.2177Z" fill="#D7DFE5"/>
</svg>
