<svg width="115" height="161" viewBox="0 0 115 161" fill="none" xmlns="http://www.w3.org/2000/svg">
<path d="M89.9993 0.391602C89.9993 0.391602 58.1913 1.0303 56.666 33.7247C56.6687 33.7247 87.786 33.8074 89.9993 0.391602Z" fill="#101010"/>
<path d="M23.334 0.391602C23.334 0.391602 55.1139 1.0303 56.6673 33.7247C56.6646 33.7247 25.5206 33.8074 23.334 0.391602Z" fill="#101010"/>
<path d="M57.4999 43.7246C25.6918 43.7246 0 69.859 0 102.058C0 134.257 25.7193 160.39 57.4999 160.39C89.2805 160.39 115 134.311 115 102.058C115 69.8055 89.2281 43.7246 57.4999 43.7246ZM57.4999 132.299C51.4689 132.412 45.5408 130.733 40.4712 127.474C35.4015 124.216 31.4201 119.526 29.0346 114.003C26.649 108.48 25.9673 102.374 27.0765 96.4627C28.1856 90.5519 31.0353 85.1043 35.2622 80.8143C39.4892 76.5244 44.9019 73.5865 50.8102 72.3751C56.7186 71.1638 62.855 71.734 68.437 74.0129C74.0191 76.2919 78.7939 80.1764 82.1528 85.1712C85.5117 90.166 87.3024 96.0448 87.2967 102.058C87.3637 110.006 84.2631 117.656 78.676 123.326C73.089 128.996 65.4725 132.224 57.4999 132.299Z" fill="#101010"/>
</svg>
